<?xml version="1.0" standalone="no"?>
<!DOCTYPE svg PUBLIC "-//W3C//DTD SVG 20010904//EN"
 "http://www.w3.org/TR/2001/REC-SVG-20010904/DTD/svg10.dtd">
<svg version="1.0" xmlns="http://www.w3.org/2000/svg"
 width="700.000000pt" height="700.000000pt" viewBox="0 0 700.000000 700.000000"
 preserveAspectRatio="xMidYMid meet">
<metadata>
Created by potrace 1.14, written by Peter Selinger 2001-2017
</metadata>
<g transform="translate(0.000000,700.000000) scale(0.100000,-0.100000)"
fill="#000000" stroke="none">
<path d="M1085 6312 c-69 -33 -310 -302 -471 -527 -47 -66 -142 -216 -187
-294 -80 -144 -247 -514 -247 -551 0 -6 -4 -18 -10 -28 -9 -15 -64 -202 -75
-255 -2 -10 -6 -26 -9 -35 -3 -9 -7 -28 -10 -42 -3 -14 -10 -50 -16 -80 -10
-55 -12 -63 -25 -150 -4 -25 -9 -54 -11 -65 -18 -97 -26 -541 -12 -690 7 -72
25 -206 34 -247 2 -13 7 -39 10 -58 11 -71 64 -280 99 -391 146 -453 388 -873
715 -1238 122 -137 173 -187 210 -204 135 -64 291 32 291 178 0 77 -14 105
-96 190 -165 173 -351 414 -443 575 -11 19 -35 63 -54 96 -156 272 -300 702
-334 993 -3 25 -7 57 -9 71 -21 130 -21 543 1 655 2 11 6 40 9 65 5 38 13 82
39 215 43 218 158 524 287 760 62 114 202 336 233 368 6 7 25 30 41 53 41 56
125 153 218 251 86 91 108 132 109 204 0 62 -37 129 -92 165 -53 35 -139 42
-195 16z"/>
<path d="M5767 6320 c-80 -24 -140 -112 -138 -202 1 -65 20 -97 110 -193 116
-124 142 -153 212 -245 262 -338 439 -695 540 -1085 12 -44 23 -89 25 -100 2
-11 6 -31 9 -45 30 -152 32 -168 50 -355 6 -59 7 -362 1 -421 -17 -176 -24
-225 -53 -364 -65 -318 -182 -618 -356 -910 -121 -203 -253 -374 -459 -594
-60 -64 -80 -105 -80 -165 0 -57 12 -89 53 -135 55 -63 136 -85 216 -58 52 17
106 68 283 267 101 114 290 381 379 535 171 297 310 663 375 990 23 115 33
173 41 250 3 30 10 89 15 130 8 75 6 527 -3 565 -3 12 -8 51 -11 87 -4 37 -9
77 -11 90 -6 27 -22 119 -30 167 -3 19 -8 37 -10 41 -2 3 -6 18 -9 32 -10 58
-67 259 -96 338 -17 47 -32 90 -34 95 -2 6 -8 21 -13 35 -6 14 -21 49 -33 79
-31 81 -132 280 -197 390 -50 86 -189 298 -203 311 -3 3 -36 44 -72 91 -132
170 -299 345 -353 370 -42 20 -101 23 -148 9z"/>
<path d="M1709 5697 c-39 -19 -69 -45 -148 -132 -82 -90 -241 -297 -241 -314
0 -6 -4 -11 -10 -11 -5 0 -10 -5 -10 -11 0 -6 -13 -29 -29 -52 -34 -50 -141
-260 -171 -337 -136 -345 -189 -629 -185 -990 2 -113 5 -214 8 -226 3 -11 8
-47 11 -80 10 -88 44 -244 83 -379 81 -280 222 -558 403 -795 113 -147 214
-256 268 -287 126 -74 284 7 299 153 8 74 -14 125 -87 202 -321 341 -517 764
-568 1227 -13 122 -7 397 12 525 61 415 256 820 534 1112 87 91 106 124 110
193 4 75 -25 136 -86 180 -34 23 -54 30 -105 32 -34 1 -73 -3 -88 -10z"/>
<path d="M5123 5690 c-68 -35 -104 -89 -110 -163 -6 -84 9 -115 108 -223 254
-276 446 -642 506 -963 2 -14 6 -28 9 -32 2 -4 7 -31 10 -61 3 -29 7 -56 9
-59 10 -15 19 -169 19 -304 1 -151 -7 -255 -25 -349 -5 -28 -12 -64 -15 -81
-9 -56 -55 -216 -84 -295 -95 -258 -258 -521 -439 -710 -74 -77 -100 -128
-101 -193 0 -149 158 -246 295 -181 63 30 246 242 369 427 104 156 215 376
266 527 12 36 25 72 28 80 3 8 6 20 7 25 2 6 12 42 23 80 23 79 58 245 67 320
3 28 8 66 11 85 10 65 12 414 3 500 -38 355 -140 678 -320 1010 -58 106 -210
315 -305 419 -33 35 -68 74 -79 86 -66 72 -173 95 -252 55z"/>
<path d="M4548 5085 c-95 -24 -158 -102 -158 -195 0 -54 27 -116 64 -150 58
-54 179 -226 226 -323 153 -315 165 -663 34 -990 -57 -142 -132 -261 -234
-370 -65 -70 -81 -99 -87 -162 -8 -79 21 -139 89 -185 45 -31 58 -35 113 -34
75 1 108 19 180 96 82 87 225 280 225 303 0 4 8 19 18 33 33 47 117 256 137
338 100 412 71 762 -93 1124 -80 178 -268 434 -362 493 -42 27 -101 35 -152
22z"/>
<path d="M2322 5075 c-76 -33 -247 -244 -345 -425 -79 -147 -154 -368 -171
-505 -20 -158 -22 -196 -20 -296 2 -61 5 -125 8 -142 3 -18 8 -54 12 -82 9
-70 50 -227 81 -310 100 -268 331 -590 452 -629 127 -42 255 38 268 168 8 76
-8 113 -88 202 -266 301 -366 641 -305 1044 13 88 67 246 118 343 45 87 128
204 197 277 67 71 84 113 78 184 -10 110 -90 186 -197 185 -30 0 -70 -6 -88
-14z"/>
<path d="M3408 4685 c-2 -2 -19 -5 -38 -8 -78 -12 -234 -70 -260 -97 -3 -3
-23 -17 -45 -31 -97 -63 -206 -198 -257 -320 -45 -108 -58 -180 -55 -314 3
-104 8 -133 35 -213 77 -226 248 -399 470 -476 l37 -13 0 -1194 1 -1194 22
-41 c50 -97 127 -127 255 -101 32 6 86 56 109 100 l22 42 2 1185 c1 652 2
1190 3 1196 0 7 13 15 28 19 80 20 202 93 281 169 49 47 142 176 170 236 60
132 78 339 42 480 -73 287 -283 495 -565 561 -44 10 -249 22 -257 14z m233
-439 c197 -93 260 -348 128 -516 -69 -87 -158 -131 -265 -132 -102 0 -171 29
-245 103 -113 114 -131 288 -42 422 69 104 172 157 299 152 51 -2 87 -10 125
-29z"/>
</g>
</svg>
